<?xml version="1.0" encoding="utf-8"?>
<!DOCTYPE svg PUBLIC "-//W3C//DTD SVG 1.1//EN" "http://www.w3.org/Graphics/SVG/1.1/DTD/svg11.dtd">
<svg version="1.1" id="Capa_1" xmlns="http://www.w3.org/2000/svg" xmlns:xlink="http://www.w3.org/1999/xlink" x="0px" y="0px"
	 width="32px" height="20px" viewBox="0 0 32 20" enable-background="new 0 0 32 20" xml:space="preserve">
<g>
	<g>
		<path fill="#fff" d="M22.7,0.1H9.3c-2,0-3.6,1.6-3.6,3.6V12c0,2,1.6,3.6,3.6,3.6h8.5l4.1,4.1c0.1,0.1,0.3,0.2,0.5,0.2
			c0.1,0,0.2,0,0.3-0.1c0.3-0.1,0.4-0.4,0.4-0.7v-3.6c1.8-0.2,3.2-1.7,3.2-3.6V3.7C26.3,1.7,24.7,0.1,22.7,0.1z M24.9,12
			c0,1.2-1,2.2-2.2,2.2h-0.3c-0.4,0-0.7,0.3-0.7,0.7v2.5l-3.1-3.1c-0.1-0.1-0.3-0.2-0.5-0.2H9.3c-1.2,0-2.2-1-2.2-2.2V3.7
			c0-1.2,1-2.2,2.2-2.2h13.4c1.2,0,2.2,1,2.2,2.2V12z"/>
		<path fill="#fff" d="M21.3,5.2H10.7c-0.4,0-0.7,0.3-0.7,0.7s0.3,0.7,0.7,0.7h10.6c0.4,0,0.7-0.3,0.7-0.7S21.7,5.2,21.3,5.2z"/>
		<path fill="#fff" d="M21.3,9.3H10.7C10.3,9.3,10,9.6,10,10c0,0.4,0.3,0.7,0.7,0.7h10.6c0.4,0,0.7-0.3,0.7-0.7
			C22,9.6,21.7,9.3,21.3,9.3z"/>
	</g>
</g>
</svg>
