<?xml version="1.0" encoding="utf-8"?>
<!DOCTYPE svg PUBLIC "-//W3C//DTD SVG 1.1//EN" "http://www.w3.org/Graphics/SVG/1.1/DTD/svg11.dtd">
<svg version="1.1" id="Capa_1" xmlns="http://www.w3.org/2000/svg" xmlns:xlink="http://www.w3.org/1999/xlink" x="0px" y="0px"
	 width="32px" height="20px" viewBox="0 0 32 20" enable-background="new 0 0 32 20" xml:space="preserve">
<path fill="#fff" d="M13.5,11.4c1.3,1.3,2.7,2.6,4,3.9c0.9,0.9,1,1.8,0.3,2.5c-0.7,0.7-1.6,0.6-2.5-0.2
	c-2.2-2.2-4.4-4.4-6.6-6.6c-1-1-1-1.8,0-2.8c2.2-2.2,4.4-4.4,6.6-6.6c0.8-0.8,1.7-0.9,2.4-0.3C18.5,2,18.4,3,17.6,3.8
	c-1.3,1.3-2.7,2.7-4.2,4.2c0.6,0,0.9,0,1.3,0c3.1,0.1,6.3-0.1,9.3,0.2c4.4,0.5,7.7,4.6,7.7,9c0,1.1-0.5,1.7-1.4,1.8
	c-0.9,0.1-1.6-0.5-1.7-1.6c-0.5-4.2-2.8-6.3-7.1-6.3c-2.6,0-5.2,0-7.9,0C13.6,11.3,13.6,11.4,13.5,11.4z"/>
<path fill="#fff" d="M4.1,9.6C6,11.5,7.8,13.2,9.5,15c0.2,0.2,0.4,0.4,0.6,0.6c0.7,0.7,0.7,1.7,0,2.3
	c-0.6,0.6-1.5,0.6-2.2,0c-1.2-1.1-2.3-2.3-3.4-3.4c-1.2-1.2-2.4-2.4-3.5-3.6C0.1,10,0.1,9.2,1,8.3c2.3-2.3,4.5-4.6,6.8-6.8
	c0.8-0.8,1.7-0.8,2.4-0.2C10.8,2,10.8,3,10,3.8C8.1,5.7,6.1,7.6,4.1,9.6z"/>
</svg>
