<?xml version="1.0" encoding="utf-8"?>
<!-- Generator: Adobe Illustrator 16.0.0, SVG Export Plug-In . SVG Version: 6.00 Build 0)  -->
<!DOCTYPE svg PUBLIC "-//W3C//DTD SVG 1.1//EN" "http://www.w3.org/Graphics/SVG/1.1/DTD/svg11.dtd">
<svg version="1.1" id="Capa_1" xmlns="http://www.w3.org/2000/svg" xmlns:xlink="http://www.w3.org/1999/xlink" x="0px" y="0px"
	 width="32px" height="20px" viewBox="0 0 32 20" enable-background="new 0 0 32 20" xml:space="preserve">
<path fill-rule="evenodd" clip-rule="evenodd" fill="#FFFFFF" d="M2,12c0.2-0.2,0.4-0.4,0.5-0.7c0.9-1.7,2.2-3.1,4-3.9
	c0.2-0.1,0.3-0.3,0.4-0.5c0.3-0.6,0.5-1.2,0.9-1.8c0.5-0.8,1-0.8,1.8-0.3C9.7,4.9,9.9,4.9,10,4.9c0.7-0.2,1.2,0,1.4,0.9
	c0.7-0.2,1.3-0.3,1.9-0.6C14.1,4.9,15,4.5,15.9,4c4.5-2.2,8.5-0.3,11,2.5c1.5,1.7,2.4,3.8,1.9,6.2c-0.2,1-0.4,2-0.4,3.1
	c0,1.6-1.7,3.1-3.7,3.1c-1.3,0-2.5-0.3-3.8-0.6c-1.1-0.2-2.2-0.6-3.3-0.7c-2.3-0.3-4.3,0.4-6.1,1.7c-0.1,0.1-0.2,0.2-0.4,0.3
	c-0.2,0.1-0.4,0.1-0.7,0.1c0.1-0.2,0.1-0.5,0.3-0.6c2.6-2,5.5-2.7,8.8-1.8c1.3,0.4,2.6,0.7,3.9,0.9c1.1,0.2,2.2,0,3.2-0.7
	c0.9-0.6,1.2-1.6,0.9-2.5c-0.8,0.8-1.8,1.3-2.9,1.3c-0.8,0.1-1.6,0.1-2.3-0.1c-0.9-0.3-1.8-0.3-2.7-0.3c-0.9,0-1.7,0-2.6,0
	c-0.1,0-0.3-0.2-0.4-0.2c0.1-0.1,0.2-0.3,0.3-0.4c0.7-0.5,1.4-0.3,2.1-0.2c0.3,0.1,0.6,0,0.9,0c-0.2-0.3-0.3-0.6-0.6-0.7
	c-1.3-1-2.8-1.1-4.3-0.7c-0.7,0.2-1.1,0.8-1.2,1.5c-0.1,0.5-0.3,0.8-0.8,0.8c-1.2,0-2.4,0-3.6,0c-0.2,0-0.3-0.1-0.5-0.2
	c0.2-0.6,0.6-0.7,1.1-0.8c0.4,0,0.9,0,1.3,0.1c1.1,0.2,1.3,0,1.1-1.2c-0.9-0.1-1.7-0.5-2.5-1.2c-0.3-0.2-1-0.2-1.4,0
	c-1.9,0.7-3.8,0.7-5.6,0c-0.3-0.1-0.6-0.2-1-0.2C2,12.2,2,12.1,2,12z"/>
</svg>
