<?xml version="1.0" encoding="utf-8"?>
<!-- Generator: Adobe Illustrator 16.0.0, SVG Export Plug-In . SVG Version: 6.00 Build 0)  -->
<!DOCTYPE svg PUBLIC "-//W3C//DTD SVG 1.1//EN" "http://www.w3.org/Graphics/SVG/1.1/DTD/svg11.dtd">
<svg version="1.1" id="Capa_1" xmlns="http://www.w3.org/2000/svg" xmlns:xlink="http://www.w3.org/1999/xlink" x="0px" y="0px"
	 width="40px" height="20px" viewBox="0 0 40 20" enable-background="new 0 0 40 20" xml:space="preserve">
<path fill="#FFFFFF" d="M6.2,19.7c-1.4-5.1-3.8-8.6-4.8-10.1C1.6,11,4.4,17.6,6.2,19.7z M38,0.3c0,0-4.9,1.5-10.5,3.3
	c0.1,0.4-0.2,0.9-0.6,1.2c-0.6,0.2-1.1,0.1-1.3-0.4l0,0c-0.4,0.2-1,0.2-1.3,0.4l0,0c0.2,0.5-0.1,0.9-0.6,1.2c-0.6,0.2-1.3,0-1.5-0.5
	l-0.1-0.3c-0.4,0.2-1,0.2-1.4,0.6c0,0,0,0,0.2,0.1c0.2,0.5,0,1-0.6,1.2c-0.6,0.2-1.1,0.1-1.4-0.4c0,0-0.1-0.3-0.1-0.4
	c-0.6,0.2-1.2,0.5-1.8,0.6c0,0,0.2,0.1,0.1,0.3c0.2,0.5,0,0.9-0.6,1.2C15.7,8.6,15.2,8.5,15,8c-0.2-0.1-0.1-0.3-0.1-0.4
	c-0.6,0.2-1.2,0.3-1.6,0.6c0.2,0.1,0.2,0.1,0.3,0.4c0.2,0.5,0.1,1-0.5,1.3c-0.4,0.3-1.1,0.1-1.4-0.2c-0.1-0.3-0.2-0.7,0-0.8
	c-0.2,0.1-0.4,0.2-0.6,0.2c-4.1,1.5-7.5,1.2-9.4,0.3c1.5,2,3.5,5.5,4.9,10.2c0.6-1.2,2-3.7,3.5-4.2c2.1-0.7,19.4-12.1,24.3-12.2
	C34.5,3.2,34.4,2.7,38,0.3z"/>
</svg>
